<svg xmlns="http://www.w3.org/2000/svg" xmlns:xlink="http://www.w3.org/1999/xlink" width="1484" zoomAndPan="magnify" viewBox="0 0 1113 258.74999" height="345" preserveAspectRatio="xMidYMid meet" version="1.0"><defs><g/><clipPath id="c2ed23ddcc"><path d="M 0.539062 5 L 1054 5 L 1054 212 L 0.539062 212 Z M 0.539062 5 " clip-rule="nonzero"/></clipPath><clipPath id="e07cec0912"><path d="M 38.035156 15.632812 L 52.570312 15.632812 L 52.570312 53.066406 L 38.035156 53.066406 Z M 38.035156 15.632812 " clip-rule="nonzero"/></clipPath><clipPath id="e0284e920b"><path d="M 0.0351562 0.632812 L 14.570312 0.632812 L 14.570312 38.066406 L 0.0351562 38.066406 Z M 0.0351562 0.632812 " clip-rule="nonzero"/></clipPath><clipPath id="bad3210307"><rect x="0" width="15" y="0" height="39"/></clipPath><clipPath id="96f8b45af6"><path d="M 21.332031 85.980469 L 34.847656 85.980469 L 34.847656 169.347656 L 21.332031 169.347656 Z M 21.332031 85.980469 " clip-rule="nonzero"/></clipPath><clipPath id="8008471da3"><path d="M 0.332031 0.980469 L 13.847656 0.980469 L 13.847656 84.347656 L 0.332031 84.347656 Z M 0.332031 0.980469 " clip-rule="nonzero"/></clipPath><clipPath id="bf9653e8c5"><rect x="0" width="14" y="0" height="85"/></clipPath><clipPath id="ec219c4cbd"><path d="M 21.332031 155.824219 L 93.703125 155.824219 L 93.703125 169.335938 L 21.332031 169.335938 Z M 21.332031 155.824219 " clip-rule="nonzero"/></clipPath><clipPath id="39202417cb"><path d="M 0.332031 0.824219 L 72.703125 0.824219 L 72.703125 14.335938 L 0.332031 14.335938 Z M 0.332031 0.824219 " clip-rule="nonzero"/></clipPath><clipPath id="a7c633d259"><rect x="0" width="73" y="0" height="15"/></clipPath><clipPath id="76e8955eff"><path d="M 153.628906 85.980469 L 167.140625 85.980469 L 167.140625 169.347656 L 153.628906 169.347656 Z M 153.628906 85.980469 " clip-rule="nonzero"/></clipPath><clipPath id="86e502a359"><path d="M 0.628906 0.980469 L 14.140625 0.980469 L 14.140625 84.347656 L 0.628906 84.347656 Z M 0.628906 0.980469 " clip-rule="nonzero"/></clipPath><clipPath id="e700ef0a17"><rect x="0" width="15" y="0" height="85"/></clipPath><clipPath id="77a20100c5"><path d="M 93.703125 155.824219 L 167.140625 155.824219 L 167.140625 169.335938 L 93.703125 169.335938 Z M 93.703125 155.824219 " clip-rule="nonzero"/></clipPath><clipPath id="cacefd1853"><path d="M 0.703125 0.824219 L 74.140625 0.824219 L 74.140625 14.335938 L 0.703125 14.335938 Z M 0.703125 0.824219 " clip-rule="nonzero"/></clipPath><clipPath id="171f94fc8d"><rect x="0" width="75" y="0" height="15"/></clipPath><clipPath id="0de82e0cf9"><path d="M 0.539062 0.753906 L 104 0.753906 L 104 90 L 0.539062 90 Z M 0.539062 0.753906 " clip-rule="nonzero"/></clipPath><clipPath id="82b4b478a8"><path d="M 94.699219 0.808594 L 103.328125 11.207031 L 9.164062 89.355469 L 0.535156 78.957031 Z M 94.699219 0.808594 " clip-rule="nonzero"/></clipPath><clipPath id="142bfb0edd"><path d="M 0.539062 0.753906 L 103.398438 0.753906 L 103.398438 89.46875 L 0.539062 89.46875 Z M 0.539062 0.753906 " clip-rule="nonzero"/></clipPath><clipPath id="1fcc63dc7c"><path d="M 94.699219 0.808594 L 103.328125 11.207031 L 9.164062 89.355469 L 0.535156 78.957031 Z M 94.699219 0.808594 " clip-rule="nonzero"/></clipPath><clipPath id="db535842b2"><rect x="0" width="104" y="0" height="90"/></clipPath><clipPath id="707e39bbcf"><path d="M 85 0.753906 L 188 0.753906 L 188 91 L 85 91 Z M 85 0.753906 " clip-rule="nonzero"/></clipPath><clipPath id="6cd3c23b74"><path d="M 187.078125 80.175781 L 178.3125 90.460938 L 85.175781 11.09375 L 93.9375 0.808594 Z M 187.078125 80.175781 " clip-rule="nonzero"/></clipPath><clipPath id="5104a9b797"><path d="M 0 0.753906 L 102.316406 0.753906 L 102.316406 90.667969 L 0 90.667969 Z M 0 0.753906 " clip-rule="nonzero"/></clipPath><clipPath id="0c5626c0ed"><path d="M 102.078125 80.175781 L 93.3125 90.460938 L 0.175781 11.09375 L 8.9375 0.808594 Z M 102.078125 80.175781 " clip-rule="nonzero"/></clipPath><clipPath id="ca5ab3b443"><rect x="0" width="103" y="0" height="91"/></clipPath><clipPath id="63cd9633d2"><path d="M 65.964844 71.714844 L 88.824219 71.714844 L 88.824219 95.976562 L 65.964844 95.976562 Z M 65.964844 71.714844 " clip-rule="nonzero"/></clipPath><clipPath id="c9fcf2e973"><path d="M 0.964844 0.714844 L 23.824219 0.714844 L 23.824219 24.976562 L 0.964844 24.976562 Z M 0.964844 0.714844 " clip-rule="nonzero"/></clipPath><clipPath id="683a4a6d6c"><rect x="0" width="24" y="0" height="25"/></clipPath><clipPath id="8199a76b72"><path d="M 65.964844 103.402344 L 88.824219 103.402344 L 88.824219 127.664062 L 65.964844 127.664062 Z M 65.964844 103.402344 " clip-rule="nonzero"/></clipPath><clipPath id="793923b9a6"><path d="M 0.964844 0.402344 L 23.824219 0.402344 L 23.824219 24.664062 L 0.964844 24.664062 Z M 0.964844 0.402344 " clip-rule="nonzero"/></clipPath><clipPath id="ae0675ce97"><rect x="0" width="24" y="0" height="25"/></clipPath><clipPath id="6163c80ed0"><path d="M 98.589844 103.402344 L 121.445312 103.402344 L 121.445312 127.664062 L 98.589844 127.664062 Z M 98.589844 103.402344 " clip-rule="nonzero"/></clipPath><clipPath id="536f0ffa7e"><path d="M 0.589844 0.402344 L 23.445312 0.402344 L 23.445312 24.664062 L 0.589844 24.664062 Z M 0.589844 0.402344 " clip-rule="nonzero"/></clipPath><clipPath id="5af15caa11"><rect x="0" width="24" y="0" height="25"/></clipPath><clipPath id="dd4cdb4831"><path d="M 98.589844 71.714844 L 121.445312 71.714844 L 121.445312 95.976562 L 98.589844 95.976562 Z M 98.589844 71.714844 " clip-rule="nonzero"/></clipPath><clipPath id="cc196aee7a"><path d="M 0.589844 0.714844 L 23.445312 0.714844 L 23.445312 24.976562 L 0.589844 24.976562 Z M 0.589844 0.714844 " clip-rule="nonzero"/></clipPath><clipPath id="8bec1d37d6"><rect x="0" width="24" y="0" height="25"/></clipPath><clipPath id="f2ddb23c06"><rect x="0" width="1054" y="0" height="207"/></clipPath></defs><g clip-path="url(#c2ed23ddcc)"><g transform="matrix(1, 0, 0, 1, 0.000000000000000111, 5)"><g clip-path="url(#f2ddb23c06)"><g clip-path="url(#e07cec0912)"><g transform="matrix(1, 0, 0, 1, 38, 15)"><g clip-path="url(#bad3210307)"><g clip-path="url(#e0284e920b)"><path fill="#073bb1" d="M 0.0351562 0.632812 L 14.570312 0.632812 L 14.570312 38.058594 L 0.0351562 38.058594 Z M 0.0351562 0.632812 " fill-opacity="1" fill-rule="nonzero"/></g></g></g></g><g clip-path="url(#96f8b45af6)"><g transform="matrix(1, 0, 0, 1, 21, 85)"><g clip-path="url(#bf9653e8c5)"><g clip-path="url(#8008471da3)"><path fill="#151e3b" d="M 0.332031 0.980469 L 13.847656 0.980469 L 13.847656 84.328125 L 0.332031 84.328125 Z M 0.332031 0.980469 " fill-opacity="1" fill-rule="nonzero"/></g></g></g></g><g clip-path="url(#ec219c4cbd)"><g transform="matrix(1, 0, 0, 1, 21, 155)"><g clip-path="url(#a7c633d259)"><g clip-path="url(#39202417cb)"><path fill="#151e3b" d="M 0.332031 14.335938 L 0.332031 0.824219 L 72.699219 0.824219 L 72.699219 14.335938 Z M 0.332031 14.335938 " fill-opacity="1" fill-rule="nonzero"/></g></g></g></g><g clip-path="url(#76e8955eff)"><g transform="matrix(1, 0, 0, 1, 153, 85)"><g clip-path="url(#e700ef0a17)"><g clip-path="url(#86e502a359)"><path fill="#090075" d="M 0.628906 0.980469 L 14.140625 0.980469 L 14.140625 84.328125 L 0.628906 84.328125 Z M 0.628906 0.980469 " fill-opacity="1" fill-rule="nonzero"/></g></g></g></g><g clip-path="url(#77a20100c5)"><g transform="matrix(1, 0, 0, 1, 93, 155)"><g clip-path="url(#171f94fc8d)"><g clip-path="url(#cacefd1853)"><path fill="#073bb1" d="M 0.703125 14.335938 L 0.703125 0.824219 L 74.125 0.824219 L 74.125 14.335938 Z M 0.703125 14.335938 " fill-opacity="1" fill-rule="nonzero"/></g></g></g></g><g clip-path="url(#0de82e0cf9)"><g clip-path="url(#82b4b478a8)"><g transform="matrix(1, 0, 0, 1, 0.000000000000000111, -0.000000000000000888)"><g clip-path="url(#db535842b2)"><g clip-path="url(#142bfb0edd)"><g clip-path="url(#1fcc63dc7c)"><path fill="#090075" d="M 94.699219 0.808594 L 103.328125 11.207031 L 9.175781 89.34375 L 0.546875 78.945312 Z M 94.699219 0.808594 " fill-opacity="1" fill-rule="nonzero"/></g></g></g></g></g></g><g clip-path="url(#707e39bbcf)"><g clip-path="url(#6cd3c23b74)"><g transform="matrix(1, 0, 0, 1, 85, -0.000000000000000888)"><g clip-path="url(#ca5ab3b443)"><g clip-path="url(#5104a9b797)"><g clip-path="url(#0c5626c0ed)"><path fill="#151e3b" d="M 102.078125 80.175781 L 93.3125 90.460938 L 0.1875 11.101562 L 8.953125 0.816406 Z M 102.078125 80.175781 " fill-opacity="1" fill-rule="nonzero"/></g></g></g></g></g></g><g clip-path="url(#63cd9633d2)"><g transform="matrix(1, 0, 0, 1, 65, 71)"><g clip-path="url(#683a4a6d6c)"><g clip-path="url(#c9fcf2e973)"><path fill="#151e3b" d="M 0.964844 0.714844 L 23.824219 0.714844 L 23.824219 25 L 0.964844 25 Z M 0.964844 0.714844 " fill-opacity="1" fill-rule="nonzero"/></g></g></g></g><g clip-path="url(#8199a76b72)"><g transform="matrix(1, 0, 0, 1, 65, 103)"><g clip-path="url(#ae0675ce97)"><g clip-path="url(#793923b9a6)"><path fill="#151e3b" d="M 0.964844 0.402344 L 23.824219 0.402344 L 23.824219 24.6875 L 0.964844 24.6875 Z M 0.964844 0.402344 " fill-opacity="1" fill-rule="nonzero"/></g></g></g></g><g clip-path="url(#6163c80ed0)"><g transform="matrix(1, 0, 0, 1, 98, 103)"><g clip-path="url(#5af15caa11)"><g clip-path="url(#536f0ffa7e)"><path fill="#151e3b" d="M 0.589844 0.402344 L 23.445312 0.402344 L 23.445312 24.6875 L 0.589844 24.6875 Z M 0.589844 0.402344 " fill-opacity="1" fill-rule="nonzero"/></g></g></g></g><g clip-path="url(#dd4cdb4831)"><g transform="matrix(1, 0, 0, 1, 98, 71)"><g clip-path="url(#8bec1d37d6)"><g clip-path="url(#cc196aee7a)"><path fill="#151e3b" d="M 0.589844 0.714844 L 23.445312 0.714844 L 23.445312 25 L 0.589844 25 Z M 0.589844 0.714844 " fill-opacity="1" fill-rule="nonzero"/></g></g></g></g><g fill="#090075" fill-opacity="1"><g transform="translate(231.046538, 170.463244)"><g><path d="M 69.875 0 L 90.226562 0 L 56.847656 -94.976562 L 33.648438 -94.976562 L 0.40625 0 L 20.625 0 L 26.320312 -17.09375 L 64.175781 -17.09375 Z M 32.292969 -34.597656 L 45.316406 -73.402344 L 58.34375 -34.597656 Z M 32.292969 -34.597656 "/></g></g></g><g fill="#090075" fill-opacity="1"><g transform="translate(322.763649, 170.463244)"><g><path d="M 8.820312 -94.976562 L 8.820312 0 L 27.542969 0 L 27.542969 -94.976562 Z M 8.820312 -94.976562 "/></g></g></g><g fill="#090075" fill-opacity="1"><g transform="translate(360.210312, 170.463244)"><g><path d="M 53.863281 1.898438 C 71.367188 1.898438 86.699219 -6.917969 94.703125 -20.488281 L 78.558594 -29.847656 C 74.082031 -21.574219 64.71875 -16.417969 53.863281 -16.417969 C 35.277344 -16.417969 23.066406 -29.308594 23.066406 -47.488281 C 23.066406 -65.804688 35.277344 -78.695312 53.863281 -78.695312 C 64.71875 -78.695312 73.945312 -73.539062 78.558594 -65.125 L 94.703125 -74.488281 C 86.5625 -88.054688 71.230469 -96.875 53.863281 -96.875 C 25.101562 -96.875 4.476562 -75.300781 4.476562 -47.488281 C 4.476562 -19.808594 25.101562 1.898438 53.863281 1.898438 Z M 53.863281 1.898438 "/></g></g></g><g fill="#090075" fill-opacity="1"><g transform="translate(459.118255, 170.463244)"><g><path d="M 40.296875 1.898438 C 60.242188 1.898438 76.25 -13.703125 76.25 -33.917969 C 76.25 -54.136719 60.242188 -69.738281 40.296875 -69.738281 C 20.351562 -69.738281 4.476562 -54.136719 4.476562 -33.917969 C 4.476562 -13.703125 20.351562 1.898438 40.296875 1.898438 Z M 40.296875 -15.195312 C 29.984375 -15.195312 21.980469 -22.929688 21.980469 -33.917969 C 21.980469 -44.910156 29.984375 -52.644531 40.296875 -52.644531 C 50.742188 -52.644531 58.75 -44.910156 58.75 -33.917969 C 58.75 -22.929688 50.742188 -15.195312 40.296875 -15.195312 Z M 40.296875 -15.195312 "/></g></g></g><g fill="#090075" fill-opacity="1"><g transform="translate(540.795325, 170.463244)"><g><path d="M 45.722656 -69.738281 C 36.632812 -69.738281 29.578125 -66.347656 25.507812 -60.242188 L 25.507812 -67.839844 L 8.003906 -67.839844 L 8.003906 0 L 25.507812 0 L 25.507812 -36.632812 C 25.507812 -48.4375 31.882812 -53.457031 40.433594 -53.457031 C 48.300781 -53.457031 53.863281 -48.707031 53.863281 -39.484375 L 53.863281 0 L 71.367188 0 L 71.367188 -41.652344 C 71.367188 -59.699219 60.105469 -69.738281 45.722656 -69.738281 Z M 45.722656 -69.738281 "/></g></g></g><g fill="#090075" fill-opacity="1"><g transform="translate(620.165928, 170.463244)"><g><path d="M 59.425781 -94.976562 L 59.425781 -59.835938 C 54.542969 -66.074219 47.351562 -69.738281 37.449219 -69.738281 C 19.265625 -69.738281 4.339844 -54.136719 4.339844 -33.917969 C 4.339844 -13.703125 19.265625 1.898438 37.449219 1.898438 C 47.351562 1.898438 54.542969 -1.765625 59.425781 -8.003906 L 59.425781 0 L 76.929688 0 L 76.929688 -94.976562 Z M 40.703125 -14.789062 C 29.847656 -14.789062 21.84375 -22.523438 21.84375 -33.917969 C 21.84375 -45.316406 29.847656 -53.050781 40.703125 -53.050781 C 51.421875 -53.050781 59.425781 -45.316406 59.425781 -33.917969 C 59.425781 -22.523438 51.421875 -14.789062 40.703125 -14.789062 Z M 40.703125 -14.789062 "/></g></g></g><g fill="#090075" fill-opacity="1"><g transform="translate(706.184647, 170.463244)"><g><path d="M 40.296875 1.898438 C 60.242188 1.898438 76.25 -13.703125 76.25 -33.917969 C 76.25 -54.136719 60.242188 -69.738281 40.296875 -69.738281 C 20.351562 -69.738281 4.476562 -54.136719 4.476562 -33.917969 C 4.476562 -13.703125 20.351562 1.898438 40.296875 1.898438 Z M 40.296875 -15.195312 C 29.984375 -15.195312 21.980469 -22.929688 21.980469 -33.917969 C 21.980469 -44.910156 29.984375 -52.644531 40.296875 -52.644531 C 50.742188 -52.644531 58.75 -44.910156 58.75 -33.917969 C 58.75 -22.929688 50.742188 -15.195312 40.296875 -15.195312 Z M 40.296875 -15.195312 "/></g></g></g><g fill="#090075" fill-opacity="1"><g transform="translate(787.861744, 170.463244)"><g><path d="M 83.035156 -69.738281 C 73.808594 -69.738281 67.023438 -66.074219 62.820312 -59.96875 C 59.019531 -66.210938 52.777344 -69.738281 44.367188 -69.738281 C 35.683594 -69.738281 29.308594 -66.347656 25.507812 -60.648438 L 25.507812 -67.839844 L 8.003906 -67.839844 L 8.003906 0 L 25.507812 0 L 25.507812 -38.125 C 25.507812 -48.300781 30.800781 -53.457031 38.261719 -53.457031 C 45.589844 -53.457031 49.660156 -48.574219 49.660156 -40.566406 L 49.660156 0 L 67.160156 0 L 67.160156 -38.125 C 67.160156 -48.300781 72.046875 -53.457031 79.777344 -53.457031 C 87.105469 -53.457031 91.175781 -48.574219 91.175781 -40.566406 L 91.175781 0 L 108.679688 0 L 108.679688 -41.789062 C 108.679688 -58.75 98.503906 -69.738281 83.035156 -69.738281 Z M 83.035156 -69.738281 "/></g></g></g><g fill="#090075" fill-opacity="1"><g transform="translate(904.543235, 170.463244)"><g><path d="M 16.6875 -75.980469 C 22.660156 -75.980469 27.542969 -80.863281 27.542969 -86.699219 C 27.542969 -92.53125 22.660156 -97.554688 16.6875 -97.554688 C 10.855469 -97.554688 5.96875 -92.53125 5.96875 -86.699219 C 5.96875 -80.863281 10.855469 -75.980469 16.6875 -75.980469 Z M 8.003906 0 L 25.507812 0 L 25.507812 -67.839844 L 8.003906 -67.839844 Z M 8.003906 0 "/></g></g></g><g fill="#090075" fill-opacity="1"><g transform="translate(939.140715, 170.463244)"><g><path d="M 45.722656 -69.738281 C 36.632812 -69.738281 29.578125 -66.347656 25.507812 -60.242188 L 25.507812 -67.839844 L 8.003906 -67.839844 L 8.003906 0 L 25.507812 0 L 25.507812 -36.632812 C 25.507812 -48.4375 31.882812 -53.457031 40.433594 -53.457031 C 48.300781 -53.457031 53.863281 -48.707031 53.863281 -39.484375 L 53.863281 0 L 71.367188 0 L 71.367188 -41.652344 C 71.367188 -59.699219 60.105469 -69.738281 45.722656 -69.738281 Z M 45.722656 -69.738281 "/></g></g></g><g fill="#090075" fill-opacity="1"><g transform="translate(1018.511292, 170.463244)"><g><path d="M 16.6875 -75.980469 C 22.660156 -75.980469 27.542969 -80.863281 27.542969 -86.699219 C 27.542969 -92.53125 22.660156 -97.554688 16.6875 -97.554688 C 10.855469 -97.554688 5.96875 -92.53125 5.96875 -86.699219 C 5.96875 -80.863281 10.855469 -75.980469 16.6875 -75.980469 Z M 8.003906 0 L 25.507812 0 L 25.507812 -67.839844 L 8.003906 -67.839844 Z M 8.003906 0 "/></g></g></g></g></g></g></svg>